<svg xmlns="http://www.w3.org/2000/svg" width="30" height="30" viewBox="0 0 30 30" enable-background="new 0 0 30 30"><path fill="#fff" d="M18.9 16.1c-.5-.5-1.4-.6-1.8-.1l-1 1c-.6-.4-1.1-.9-1.6-1.4s-1-1.1-1.4-1.6l1-1c.5-.5.4-1.3-.1-1.8l-1.7-1.7c-.2-.2-.6-.4-.9-.4s-.7.1-.9.4l-.9.9-.2.2c-1.1 1.6.1 4.8 2.8 7.4 2 2 4.2 3.1 5.9 3.1.5 0 1-.1 1.5-.4.1 0 .2-.1.2-.2l1-1c.5-.5.5-1.3-.1-1.8-.1.2-1.8-1.6-1.8-1.6zm1 2.8l-1 1c-1 .7-3.8-.1-6.2-2.6s-3.3-5.2-2.6-6.2l1-1 .1-.1.3.1 1.7 1.7c.1.1.1.2.1.2s0 .1-.1.1l-1.1 1.1c-.3.3-.3.7-.1 1.1.4.6 1 1.3 1.6 1.9.6.6 1.2 1.1 1.9 1.5.4.2.8.2 1.1 0l1.1-1.1c.1-.1.3-.1.5.1l1.7 1.7c.1.2.1.5 0 .5zm-4.9-18.9c-8.2 0-15 6.8-15 15s6.8 15 15 15 15-6.8 15-15-6.8-15-15-15zm0 29c-7.8 0-14.1-6.2-14.1-14s6.3-14.1 14.1-14.1 14 6.3 14 14.1-6.2 14-14 14z"/></svg>
