<svg xmlns="http://www.w3.org/2000/svg" viewBox="0 0 73.6 75" width="73.6" height="75" enable-background="new 0 0 73.6 75"><style type="text/css">.st0{fill:#E3B480;} .st1{fill:#545556;}</style><path class="st0" d="M46 16.5c-15.3 0-27.6 12.4-27.6 27.6s12.3 27.6 27.6 27.6 27.6-12.4 27.6-27.6-12.4-27.6-27.6-27.6zm3.2 30.9c-1.8 1.8-4.8 1.8-6.7 0-1.8-1.8-1.8-4.8 0-6.7 1.8-1.8 4.8-1.8 6.7 0 1.9 1.9 1.9 4.9 0 6.7z"/><path class="st1" d="M44.3 11.7v-5.2h3.1c.9 0 1.6-.7 1.6-1.6s-.7-1.6-1.6-1.6h-9.4c-.9 0-1.6.7-1.6 1.6s.7 1.6 1.6 1.6h3.1v5.2c-5.4.3-10.6 2.1-15.1 5.2-.7.5-.9 1.5-.4 2.3.5.7 1.5.9 2.3.4 4.4-3.1 9.5-4.7 14.9-4.7 14.3 0 26 11.7 26 26s-11.7 26-26 26c-5.4 0-10.5-1.6-14.9-4.7-.7-.5-1.7-.3-2.3.4s-.3 1.7.4 2.3c4.9 3.5 10.7 5.3 16.8 5.3 16.1-.1 29.2-13.2 29.2-29.3 0-15.6-12.3-28.4-27.7-29.2zM22.6 29.3h-21c-.9 0-1.6.7-1.6 1.6s.7 1.6 1.6 1.6h21c.9 0 1.6-.7 1.6-1.6s-.7-1.6-1.6-1.6zM22.6 39.2h-16.6c-.9 0-1.6.7-1.6 1.6 0 .9.7 1.6 1.6 1.6h16.6c.9 0 1.6-.7 1.6-1.6 0-.8-.7-1.6-1.6-1.6zM22.6 49.2h-12.1c-.9 0-1.6.7-1.6 1.6 0 .9.7 1.6 1.6 1.6h12.2c.9 0 1.6-.7 1.6-1.6-.1-.9-.8-1.6-1.7-1.6zM55.9 27.6c-.6-.6-1.7-.6-2.3 0l-7.8 7.8c-2.4-1.4-5.6-1.1-7.7 1-1.2 1.2-1.9 2.8-1.9 4.5 0 1.7.7 3.3 1.9 4.5 1.2 1.2 2.9 1.9 4.5 1.9s3.3-.6 4.5-1.9c2.1-2.1 2.4-5.2 1-7.6l7.8-7.8c.6-.7.6-1.7 0-2.4zm-11.1 15.5c-1.2 1.2-3.2 1.2-4.4 0-.6-.6-.9-1.4-.9-2.2 0-.8.3-1.6.9-2.2.6-.6 1.4-.9 2.2-.9.8 0 1.6.3 2.2.9 1.3 1.2 1.3 3.1 0 4.4z"/></svg>
