<svg xmlns="http://www.w3.org/2000/svg" width="30" height="30" viewBox="0 0 30 30" enable-background="new 0 0 30 30"><path fill="#fff" d="M15 0c-8.2 0-15 6.8-15 15s6.8 15 15 15 15-6.8 15-15-6.8-15-15-15zm0 29c-7.8 0-14.1-6.2-14.1-14s6.3-14.1 14.1-14.1 14 6.3 14 14.1-6.2 14-14 14zm0-19.9c-3.2 0-5.9 2.6-5.9 5.9s2.6 5.9 5.9 5.9c.8 0 1.5-.1 2.2-.4.2-.1.4-.4.2-.6s-.4-.4-.6-.2c-.6.2-1.2.4-1.8.4-2.7 0-4.9-2.2-4.9-4.9s2.2-4.9 4.9-4.9 4.9 2.2 4.9 4.9c0 .4 0 1.5-.5 2.1-.2.2-.5.3-.8.3-1 0-1-2.1-1-2.1v-2.6c0-.2-.2-.5-.5-.5-.2 0-.5.2-.5.4-.5-.5-1.1-.8-1.9-.8-1.6 0-2.9 1.4-2.9 3.1s1.3 3 2.9 3c.9 0 1.6-.4 2.1-1 .3.8.8 1.4 1.8 1.4.6 0 1.1-.2 1.5-.6.9-1 .8-2.8.8-2.8 0-3.3-2.7-5.9-5.9-6zm-.3 8c-1.1 0-1.9-1-1.9-2.1s.9-2.1 1.9-2.1c1 0 1.8.9 1.9 2v.1c0 1.2-.9 2.1-1.9 2.1z"/></svg>
